<svg xmlns="http://www.w3.org/2000/svg" viewBox="0 0 360.1 416.77"><defs><style>.cls-1{fill:none;stroke:#060001;stroke-width:2px;}.cls-1,.cls-2{stroke-linecap:round;stroke-linejoin:round;}.cls-10,.cls-11,.cls-2{fill:#fff;}.cls-2{stroke:#22a4c9;stroke-width:3px;}.cls-3{fill:#a0cfe6;}.cls-3,.cls-4,.cls-5,.cls-6,.cls-7,.cls-8{stroke:#fff;stroke-miterlimit:10;}.cls-4{fill:#94c4aa;}.cls-5{fill:#f1d076;}.cls-6{fill:#b3d796;}.cls-7{fill:#fad9c7;}.cls-8{fill:#92c76c;}.cls-9{opacity:0.65;}.cls-10,.cls-11{font-size:25.21px;font-family:SourceHanSansCN-Heavy, SourceHanSansCN Heavy-GBpc-EUC-H;}.cls-10{letter-spacing:0.1em;}.cls-11{writing-mode:tb;text-orientation:upright;glyph-orientation-vertical:0deg;letter-spacing:0.1em;}</style></defs><title>资源 2</title><g id="图层_2" data-name="图层 2"><g id="图层_1-2" data-name="图层 1"><path class="cls-1" d="M354.69,110.71l-2.36-3.58-3.77-8.67-3.87-9-.85-5.75,1.32-4.68,2.07-6.63-.09-4.71.66-7.83-2-2.73,2-3.77v-1.6l-3.11-4,.66-4.62,1.41-2.73-1.32-3.58-4.53-6L338,27l-3.39-2.92-4.15-2.36-3.68-.19-3.87-.19-1.23-1.89-3.87-2.17-3.21-2.45-4-.85-4.53-1.32-6.32-3.3-6.88-2.64h-2.55L286.7,9.82l-2.92,2.26-2.17-.19-2.83-1.6-5.56-2L270.67,6,267,4.25h-4.81l-3.3,2.55-1.79,4.15-2.73,3.21-2.73.85-.47,2.73L249.08,21l-2.91,3.73-2,3.93L242,36l.79,4.91,1.57,4.05.2,3.42-.39,5.5L243,57.5l.79,2.86,2.56,1.38-.79,1.57-2.95,2.95-3.15-2.36-4.8-4.33-5.36-2.07-4-2.19-5.48-.49-3.9.73-2.07-.61L210.92,53l-3-3.17-3.66-3-6-1.83h0L193.5,46l-2.68,2.19-5,3-5,.49-2.32,2.44-3.41,1.19H164.74s-5.36.4-5.61,0-3,2.44-3,2.44l-3,1.83L153,67.61l-2.32,4.27L148,77.36,143,84.18l-3.78,6.46-2.8,2.92-1.95,1.22-2.44,4.63,2.32,2.32,3.29,1.95,1,2.68s-2.44,3.29-2.56,3.66,0,4.87,0,4.87,2.07,2.92,2.44,3.41,2.44,5.61,2.44,5.61l-1.62,2.92v3.78l1.49,3.53-1.49,1.71-3.15.94-3.31,4.32,1.69-4.22.4-2.48-2.23-1.34L128.18,132l1.54-1.19,0-3.38-2.09-2.23s-2.76.87-2.83.94l1-4.17c-.1-.49-1.89-4.17-1.89-4.17l-4.22,0-5.36,2.19.74-.6,1.39-3.67.2-4.67-2.58-1-1.94-1.14-3.41-3.37c-.22-.71-1-2.92-1-2.92l-1.53-5.22L101,95.07l-6.17-1.95-6.8,2.46-3.16,6.76-1.56-1.95L78.61,96.7,71.46,96l-6.17-4.87-7.15-1.3-5.52-3.25,5.2-6.82L52,77.85l-3.9,1.95-3.9,1.95-6.5,1.3-6.82.65a13.31,13.31,0,0,1-3.9,4.22c-1.3.81-5.52,1.3-5.52,1.3l-6.5,1.3a23.27,23.27,0,0,0-9.75,11l-.85,5.78,2.2,6.54L9.44,117l8.27,5.35L22,126l8.11,5.59,3.23,1.1,10.94-.39,7.8.94,4.17,3.31-.63,2-1.18,5.59,1.65,3,2.52,2L66.37,152l8.27,1.1L81.17,155,83,160.34,82.51,165l-1.34,4.57L77.86,171l-8-2-4.25,2.52-2.76,2.68-2,3.46-2.36,1.81-5.67-1.34-7-2.41-6.3-1.37-5.75-.94L30.7,174.6l-3.07,4.33L24,182.08l-.79,4.09-2,3.79-2.84,2.13v3.55l2.55,2-2,3.55-2.55,4.26-1.7,6.67,2.84,4.68,3.83,3.55-1.14,1-3.55,4.12-2,2.41-.57,7.95,2.13,2.84,1.28,3.55v5.68l-3.41,4.68-3,4.68-.57,5.11.57,6.39.71,4.4,4.26,3.12,5,2.55,3.69-.14,3.55-1.7,3.83-1.28,6-.28,2.84,1.28,1.28,5.11,3.83,1.85,4.68-.71,6.39-.57,3.55.57,2.84-1.83,1.42-4.27,2.27-3.26,6.39-3.26,8.37-1.7,5.85.65,3.52-1.36,5.25-4.4,4.4-3.12-2.55,3.12-1.14,5.11.57,2,5.39,1.56,4.26-1.14,6.81-1.28,3.69-4.4,1-5,1.85-6,1.85-5.11,2.27-5.54,3.26-5,2.7-2.13v-3.41l-.57-4.4L127,225.3l.43-1.7,1.14-4.12,4.35-.67,3-2.13,1.42-1.3L139,217l2.24.94,2.83-2.6h1.42l2,2.13,3.9-1.42,5.32.24,4.25-.94,5.08-.59,4.61.83,1.77,2.13-.59,13.11.59,9.69v15h13.11l4.25,2.6,3.78,3.9,4.37,5.43,4,8,2.24,4.13,3-3.27,4.67-2.59,4-2.2h3.89l3.18,1.88,2.4-.13L227.7,272l2.53.06,3.57-1,4-3.24,3.5-2.4,3.37-1,1.56-1.3v-3.5l3.57-3.44,4.47-4.73a35.56,35.56,0,0,1,1.95-3.18c.39-.39,2.72-3.57,2.72-3.57l3.63-4.54s2.59-4,2.66-4.35,1.56-6.55,1.56-6.55V224l-1.3-9.17-2.79-7-1.1-6.16-3.44-5.38-4.47-4.6-5.58-2.85-2.59-3.31.16-1.94,2.16-2.87,3.41-2.07h3.86l5.3-1.26h7.73l3-.9,1.82.05,3.58-.38s4.24.66,4.81.66,5.47,1.51,5.47,1.51,1.89,1.32,2.83,0l4.81-3.3L299,173.7,303.2,175l5.19-3.39,5.56-3.49,3-3.68,3.68-5.47,3.11-1.89,4.53-4.43,1.32-.94,5.66-.57,4.05-2.83,5.37-4.81,5.28-6.13,3.49-7.17,1.7-6,.66-9.62Z"/><path class="cls-2" d="M172.32,415.27l-6.53-4.45-5.43-6.09-2.28-6.42.68-6.11.67-2.81-.91-2.63-2.58-1.45L151.18,384l-.31-.18c-1.31-.76-3.55-2.08-3.92-2.33a20.4,20.4,0,0,1-2.66-2.47l-1.43-1.43,2.31-4.44.33-1.41-.16-.51-2.52-.79-2.61-.3-2.5.08-3.08,2.62-5.69.73-6.2-.45-5.14-5.57-3.7-5.55.24-4.66-.15-.24-3.81-2.32-.95-5.59-3.68-2.74-3.26-4.16-.57-3.54-1.47-1.58-1.38-6.06-.59-4.92-.59-2.27-5-4.9-3.87-3.74-2.71-5.42.32-1.05c1.26-4.08,2.19-4.64,2.75-5,.28-.2,1.66-1.4,3-2.58l-2-2-2.61-4.64-.67-8.87,1.48-6,5.42-2.55,5-1.36,3.9-1-7-2-1.14-4-1.74,1.46L88.18,272l-6.09-.68-7.58,1.54-5.44,2.78-1.65,2.37-1.6,4.81-4.54,2.93L57,285.13l-6,.53-5.44.82-5.76-2.77-1.27-5.07-1-.46-4.92.23-3.31,1.1-3.91,1.88-5,.19-5.8-3-5.34-3.92-.91-5.61-.6-6.76.67-6L11.84,251l2.93-4v-4.3l-1-2.71-2.5-3.33.7-9.85,2.55-3.09,2.83-3.29-2-1.86-3.64-6,2.09-8.18,2.76-4.6.79-1.41L15.62,197v-6.27l3.45-2.58,1.52-2.88.89-4.62,4.09-3.56,3.36-4.74,4.54-1.75L40,171.65l6.53,1.42,7,2.42,4.26,1,.88-.68,1.89-3.32,3.27-3.18,5.5-3.26,8.23,2,1.27-.54.9-3.08.39-3.8L79,157.24l-5-1.43-8.35-1.11-8.43-3L54,149l-2.41-4.36L53,137.92l.11-.37L51,135.9l-6.81-.83-11.24.4-4.07-1.39-8.53-5.88-4.3-3.6-8.42-5.45L4.1,115.33l-2.6-7.72,1-6.8.15-.34a26,26,0,0,1,11-12.41L14,87.9l7-1.39h.11a20.3,20.3,0,0,0,4.42-.92,10.45,10.45,0,0,0,2.93-3.22l.71-1.24L30.58,81l6.68-.64,6-1.2,8.49-4.24,10.59,3.53-5.65,7.42,2.43,1.43,7.34,1.33,6.07,4.79,7.14.65,4.45,3.49L86,93.39l8.75-3.17L102,92.49l6.62,2.81,1.87,6.42c.09.27.49,1.43.76,2.27l2.69,2.66,1.45.85,4.22,1.62-.25,5.85,6.4.07.74,1.53c1.93,4,2,4.5,2.11,4.81l.13.62,0,.2,3.87,4.14-.06,3.83,1.32.32,3.38,2-.58-1.36v-5l1.32-2.39c-.7-1.71-1.43-3.41-1.68-3.9-.54-.74-2.39-3.35-2.39-3.35l-.48-.68,0-.84c-.14-5,0-5.36.14-5.82s.23-.69,2.08-3.23l-.13-.37-2.74-1.62-4-4,3.73-7.08,2.29-1.43L137.06,89l3.68-6.29,4.87-6.75,2.66-5.29,2-3.74.13-8.75,4-2.45c2.82-2.83,3.68-3.05,4.65-3.05h1.47l.13.19c1.54,0,3.84-.18,3.87-.18h10.1l2.34-.81,2.56-2.7,5.39-.53,4.3-2.62,3-2.48,6.1-1.41,7.21,2.21,4.2,3.5,2.94,3.06L215,52.41l1,.3,3.62-.68,6.43.57L230.48,55l5.67,2.19,5.08,4.58.13.1-1.22-4.43,1.33-4.1.36-5-.16-2.81-1.52-3.92-.93-5.82,2.41-8.11,2.2-4.39,3-3.84,1.71-2.72.67-3.86,3.58-1.11,1.95-2.28,1.91-4.42,4.61-3.55h6.35l4.62,2.13,2.45,2.27,5.26,1.87,2.52,1.43.5,0,2-1.57L289.37,4h4.06l7.51,2.88,6.22,3.25,4.17,1.22,4.47,1L319.34,15l4.29,2.41.83,1.27,2.46.12,4.34.22,4.95,2.81L340,25.08l3.1,4.1,4.77,6.37,1.88,5.1L348,44l-.43,3,3,3.78v3.23l-1.5,2.86,1.58,2.18-.73,8.7.1,5-2.21,7.06-1.14,4,.71,4.81,3.72,8.63,3.67,8.45,2.45,3.73,1.39,4.73-.71,10.39L356,131.21l-3.75,7.71-5.63,6.54-5.63,5-4.78,3.33-5.64.56-.55.39-4.6,4.51L322.59,161l-3.41,5.07-3.39,4.13L309.85,174,303.63,178l-4.69-1.46-3.31,1-4.15,2.85a4.12,4.12,0,0,1-3,1.27,5.84,5.84,0,0,1-2.82-.81c-1.84-.56-4-1.17-4.55-1.29-.41,0-1.47-.14-4.65-.63l-3.41.36-1.55,0-2.93.89h-7.81l-5.3,1.26H252l-2.3,1.39-1.36,1.81v.07l1.55,2,5.44,2.78,5,5.13,3.88,6.08,1.15,6.42,2.81,7,1.37,9.69v5.78l-.08.32c-.68,2.81-1.45,6-1.53,6.4s-.15.91-3.06,5.35l-.07.11-3.68,4.6c-2,2.71-2.62,3.47-2.85,3.72s-1,1.66-1.6,2.69l-.17.3-4.75,5L249,260.74v3.62l-3,2.48-3.5,1.08-3.07,2.1-4.39,3.54-4.51,1.23-2.15-.06-2.23,1.3-3.9.21L219,274.32H216.6l-3.4,1.87-4.26,2.37-1.82,2,.53,4.34,1.7,6.31v12.17l-1.85,1.54,1.74,2.39.8,6.52-3.56,5.7-5.81,7.12-1.91,2.87-1.83,4.27-.06,1.29,2.73,5.68,2.6,7.9,3,6.09,3,5.69,2.92,6.7,2,5.08v6.32l-3.8,8.12-2.84,5.92-3.55,4.88-.77,4.5-2.91,7.14-3.4,3.55-7.08,2.64ZM118.76,274.64l.75-.75v-1.72l-2.11-.35-2.51.6-6.78,1.27-2.73.73,7,.11,1.8.11Z"/><path class="cls-3" d="M245.7,183.57l-2.78-1.71-5.12-1.17h-3.11l-2.1,1.17-2.78-2.07-2-2.25L225,178.9l-3.41,2.16-1.8.36-1.35,1.08-7-2.34-4-2-3.59-2.45H199l-1.68,1.72v4.49l-.42,3.49-2.17,3.86-1.53,3.59-.37,4.12-.63,2.7-3.49,4.18-3.54,2.33-3.59-1.14-5.42-.37-2.42.81-.51,1.68L172.4,213l-1.71,2.65,1.77,2.13-.59,13.11.59,9.69v15h13.11l4.25,2.6,3.78,3.9,4.37,5.43,4,8,2.24,4.13,3-3.27,4.67-2.59,4-2.2h3.89l3.18,1.88,2.4-.13L227.7,272l2.53.06,3.57-1,4-3.24,3.5-2.4,3.37-1,1.56-1.3v-3.5l3.57-3.44,4.47-4.73a35.57,35.57,0,0,1,1.95-3.18c.39-.39,2.72-3.57,2.72-3.57l3.63-4.54s2.59-4,2.66-4.35,1.56-6.55,1.56-6.55V224l-1.3-9.17-2.79-7-1.1-6.16-3.44-5.38-4.47-4.6-5.58-2.85-2.59-3.31Z"/><path class="cls-4" d="M5.17,101.57a23.27,23.27,0,0,1,9.75-11l6.5-1.3s4.22-.49,5.52-1.3a13.31,13.31,0,0,0,3.9-4.22l6.82-.65,6.5-1.3,3.9-1.95L52,77.85l5.85,1.95-5.2,6.82,5.52,3.25,7.15,1.3L71.46,96l7.15.65,4.73,3.71,1.56,1.95,3.16-6.76,6.8-2.46L101,95.07l5.3,2.25,1.53,5.22s.76,2.21,1,2.92l3.41,3.37,1.94,1.14,2.58,1-.2,4.67-1.39,3.67-.74.6,5.36-2.19,4.22,0s1.79,3.69,1.89,4.17l-1,4.17c.07-.07,2.83-.94,2.83-.94l2.09,2.23,0,3.38L128.18,132l4.57,1.09,2.23,1.34-.4,2.48-1.69,4.22,3.31-4.32,3.15-.94,3.94,1.34,1.34,3.93v3.55h7.87l4.8,5.35,5,8.35,1.5,9.29-7.32,4.41-6.38,6.38-5,4.8-3.54-4.88-3.23,1.18-4.49,2.76v5.12L130.78,192h-5.43l-5.51,4.41-3.39,2.76-3.46-1-6-1.73-4.57-4.09L98,191.76,93.85,193l-5.2,4.33-3.7,2.28-6.38.71-3.23,2.91-2.91,4.41L67,207.27l-7.24-5.83-4.88-3.39-7.4-1.89-6.06-1.34-5.83-2-6.46-1.65-4.25-1.65-1.65-3.39.79-4.09,3.62-3.15,3.07-4.33,3.07-1.18,5.75.94,6.3,1.37,7,2.41,5.67,1.34,2.36-1.81,2-3.46,2.76-2.68L69.83,169l8,2,3.31-1.42L82.51,165l.47-4.65L81.17,155l-6.54-1.89L66.37,152l-7.72-2.76-2.52-2-1.65-3,1.18-5.59.63-2-4.17-3.31-7.8-.94-10.94.39-3.23-1.1L22,126l-4.33-3.62L9.44,117l-2.91-3.15-2.2-6.54Z"/><polygon class="cls-5" points="23.22 186.17 24.87 189.56 29.12 191.21 35.58 192.86 41.41 194.83 47.47 196.17 54.87 198.06 59.75 201.45 67 207.27 72.43 207.67 75.34 203.26 78.57 200.34 84.95 199.63 88.65 197.35 93.85 193.02 98.02 191.76 102.43 192.31 107 196.41 112.98 198.14 116.44 199.16 119.83 196.41 125.34 192 130.78 192 132.87 196.27 132.87 201.27 128.09 204.15 125.39 207.67 124.82 211.96 126.38 217.07 128.51 219.48 127.38 223.59 126.95 225.3 130.36 228.85 130.93 233.25 130.93 236.65 128.23 238.78 124.96 243.75 122.69 249.28 120.85 254.39 119 260.35 118.01 265.32 114.32 269.72 107.51 271 103.25 272.13 97.86 270.57 97.29 268.59 98.42 263.48 100.98 260.35 96.58 263.48 91.33 267.88 87.81 269.24 81.96 268.59 73.59 270.29 67.2 273.55 64.93 276.82 63.51 281.09 60.67 282.92 57.12 282.35 50.74 282.92 46.05 283.63 42.22 281.79 40.94 276.68 38.1 275.4 32.14 275.68 28.31 276.96 24.76 278.66 21.07 278.8 16.11 276.25 11.85 273.13 11.14 268.73 10.57 262.34 11.14 257.23 14.12 252.55 17.52 247.86 17.52 242.19 16.25 238.64 14.12 235.8 14.69 227.85 16.67 225.44 20.22 221.32 21.36 220.33 17.52 216.78 14.69 212.1 16.39 205.43 18.95 201.17 20.93 197.62 18.38 195.63 18.38 192.09 21.21 189.96 23.22 186.17"/><path class="cls-6" d="M219.83,181.41V171.08l-.36-6.65-.63-4.67-.54-6,.54-6s-.54-4.22-.63-4.49a33.6,33.6,0,0,0-2.25-2.52L213.63,135l-4-5.66-5-8.53-1.53-2.52,1-1.8,2.87-4.58,3.32-4,4.31-4.76,1-1.8-3.23-3.32-2.78-3.86-3.05-4.4-4.13-3.41-2-3.77L200,75.06V68.14l-.45-5.84-.81-7.55V48.2l-.47-3.25,6,1.83,3.66,3,3,3.17,2.92,1.95,2.07.61,3.9-.73,5.48.49,4,2.19s1.22,3.9,1.58,4.51,1.58,3.9,1.58,3.9l-1.1,6-1.95,4.26.37,1.22,5.24,1.7,4.39,3.78,3,1.83.61,3.66-.85,5.73.85,6v3.66l3.05,2.55,3.14,5.07,1.8,3.55,3.86,4.22,2.34,4.67,1.89,4.58,2.34,4.49,1,3.32s.36,4.85,0,5.12-.9,4-.9,4l.09,4.67,1.44,6.92,2.43,6.2,2.16,5.12,2.16,4,1.26,4.31-3,.9h-7.73l-5.3,1.26h-3.86l-3.41,2.07-2.16,2.87-2.78-1.71-5.12-1.17h-3.11l-2.1,1.17-2.78-2.07-2-2.25L225,178.9l-3.41,2.16Z"/><path class="cls-3" d="M269.86,172.16l-2.16-4L265.55,163l-2.43-6.2-1.44-6.92-.09-4.67s.54-3.68.9-4,0-5.12,0-5.12l-1-3.32-2.34-4.49-1.89-4.58-2.34-4.67-3.86-4.22-1.8-3.55-3.14-5.07-3.05-2.55V100l-.85-6,.85-5.73-.61-3.66-3-1.83L235,79.06l-5.24-1.7-.37-1.22,1.95-4.26,1.1-6s-1.22-3.29-1.58-3.9-1.58-4.51-1.58-4.51l5.36,2.07,4.8,4.33,3.15,2.36,2.95-2.95.79-1.57-2.56-1.38L243,57.5l1.18-3.63.39-5.5-.2-3.42-1.57-4.05L242,36l2.16-7.27,2-3.93L249.08,21l2.07-3.3.47-2.73,2.73-.85,2.73-3.21,1.79-4.15,3.3-2.55H267L270.67,6l2.55,2.36,5.56,2,2.83,1.6,2.17.19,2.92-2.26,3.68-3.11h2.55l6.88,2.64,6.32,3.3L310.65,14l4,.85,3.21,2.45,3.87,2.17,1.23,1.89,3.87.19,3.68.19,4.15,2.36L338,27l2.92,3.87,4.53,6,1.32,3.58-1.41,2.73-.66,4.62,3.11,4v1.6l-2,3.77,2,2.73-.66,7.83.09,4.71-2.07,6.63-1.32,4.68.85,5.75,3.87,9,3.77,8.67,2.36,3.58,1.13,3.87-.66,9.62-1.7,6L350,137.39l-5.28,6.13-5.37,4.81-4.05,2.83-5.66.57-1.32.94-4.53,4.43L320.65,159,317,164.45l-3,3.68-5.56,3.49L303.2,175,299,173.7,294.44,175l-4.81,3.3c-.94,1.32-2.83,0-2.83,0s-4.9-1.51-5.47-1.51-4.81-.66-4.81-.66l-3.58.38-1.82-.05Z"/><path class="cls-7" d="M162.35,158.38l1.5,9.29-7.32,4.41-6.38,6.38-5,4.8-3.54-4.88-3.23,1.18-4.49,2.76v5.12L130.78,192l2.09,4.27v5l-4.78,2.88-2.7,3.52-.57,4.29,1.56,5.11,2.13,2.41,4.35-.67,3-2.13,1.42-1.3L139,217l2.24.94,2.83-2.6h1.42l2,2.13,3.9-1.42,5.32.24,4.25-.94,5.08-.59,4.61.83L172.4,213l.81-5.78.51-1.68,2.42-.81,5.42.37,3.59,1.14,3.54-2.33,3.49-4.18.63-2.7.37-4.12,1.53-3.59,2.17-3.86.42-3.49v-4.49l1.68-1.72h4.85l3.59,2.45,4,2,7,2.34,1.35-1.08V171.08l-.36-6.65-.63-4.67-.54-6,.54-6s-.54-4.22-.63-4.49a33.6,33.6,0,0,0-2.25-2.52L213.63,135l-4-5.66-5-8.53-1.53-2.52,1-1.8,2.87-4.58,3.32-4,4.31-4.76,1-1.8-3.23-3.32-2.78-3.86-3.05-4.4-4.13-3.41-2-3.77L200,75.06V68.14l-.45-5.84-.81-7.55V48.2l-.47-3.25L193.5,46l-2.68,2.19-5,3-5,.49-2.32,2.44-3.41,1.19H164.74s-5.36.4-5.61,0-3,2.44-3,2.44l-3,1.83L153,67.61l-2.32,4.26L148,77.36,143,84.18l-3.78,6.46-2.8,2.92-1.95,1.22-2.44,4.63,2.32,2.32,3.29,1.95,1,2.68s-2.44,3.29-2.56,3.66,0,4.87,0,4.87,2.07,2.92,2.44,3.41,2.44,5.61,2.44,5.61l-1.62,2.92v3.78l1.49,3.53-1.49,1.71,3.94,1.34,1.34,3.93v3.55h7.87l4.8,5.35,5,8.35,1.5,9.29"/><path class="cls-8" d="M114.32,269.72l3.69-4.4,1-5,1.85-6,1.85-5.11,2.27-5.54,3.26-5,2.7-2.13v-3.41l-.57-4.4L127,225.3l.43-1.7,1.14-4.12,4.35-.67,3-2.13,1.42-1.3L139,217l2.24.94,2.83-2.6h1.42l2,2.13,3.9-1.42,5.32.24,4.25-.94,5.08-.59,4.61.83,1.77,2.13-.59,13.11.59,9.69v15h13.11l4.25,2.6,3.78,3.9,4.37,5.43,4,8,2.24,4.13.71,5.79,1.65,6.14v10.51l-2.83,2.36,2.83,3.9.59,4.84-3,4.72L198.45,325l-2.13,3.19-2.13,5-.12,2.48,3,6.14,2.6,7.91,3.07,6.26,3,5.67,2.83,6.5,1.77,4.61v5.2l-3.54,7.56L204,391.14l-3.78,5.2-.83,4.84-2.6,6.38-2.6,2.72-6,2.24h-15l-5.55-3.78-4.84-5.43L160.89,398l.59-5.32.81-3.43-1.52-4.37L157,382.75l-4.72-1.3s-3.43-2-3.78-2.24-2.24-2.13-2.24-2.13l1.54-3,.59-2.48-.83-2.6-4.13-1.3-3.07-.35-3.66.12-3.19,2.72-4.61.59-4.84-.35-4.25-4.61-3.07-4.61.24-4.61-.94-1.54-3.31-2-.92-5.44-4.28-3.19-2.6-3.31-.59-3.66-1.54-1.65-1.18-5.2-.59-5-.83-3.19-5.55-5.43-3.54-3.43-2-4s.94-3.07,1.54-3.43,4.13-3.54,4.13-3.54L95.8,301l-3.43-3.43-2.13-3.78L89.66,286l1.06-4.34,4-1.89,4.72-1.3,5.2-1.3,7.56.12,1.89.12h5.79l2.36-2.36v-5.2l-5-.83Z"/><g class="cls-9"><text class="cls-10" transform="translate(80.8 133.51)">普</text></g><g class="cls-9"><text class="cls-10" transform="translate(87.69 224.66)">长<tspan x="0" y="30.25">宁</tspan></text></g><g class="cls-9"><text class="cls-10" transform="translate(168.9 119.08)">静</text></g><g class="cls-9"><text class="cls-10" transform="translate(191.56 215.68)">黄</text></g><g class="cls-9"><text class="cls-10" transform="translate(276.22 73.37)">杨</text></g><g class="cls-9"><text class="cls-11" transform="translate(232.74 102.52)">虹</text></g><g class="cls-9"><text class="cls-10" transform="translate(153.45 354.12)">汇</text></g><g class="cls-9"><text class="cls-10" transform="translate(147.01 310.96)">徐</text></g><g class="cls-9"><text class="cls-10" transform="translate(105.39 168.96)">陀</text></g><g class="cls-9"><text class="cls-10" transform="translate(178.74 159.73)">安</text></g><g class="cls-9"><text class="cls-10" transform="translate(183.39 246.94)">浦</text></g><g class="cls-9"><text class="cls-10" transform="translate(287.36 117.08)">浦</text></g><g class="cls-9"><text class="cls-11" transform="translate(240.74 142.52)">口</text></g></g></g></svg>